<svg id="home-image" xmlns="http://www.w3.org/2000/svg" width="199.915" height="190.363" viewBox="0 0 199.915 190.363">
  <path id="Path_1" data-name="Path 1" d="M186.368,0,184.5,1.648,164.221,19.587,129.836,50l1.62,130.18L.67,150.627V64.465l49.337-52.2Z" transform="translate(-0.499)" fill="#373e46"/>
  <path id="Path_2" data-name="Path 2" d="M186.368,0,184.5,1.648,164.221,19.587,129.836,50l1.62,130.18L.67,150.627V64.465l49.337-52.2Z" transform="translate(-0.499)" opacity="0.1"/>
  <path id="Path_3" data-name="Path 3" d="M200.414,247.179l-3.767,90.78L61.655,357.344.67,316.96V229.733L129.836,213.58Z" transform="translate(-0.499 -167.142)" fill="#373e46"/>
  <path id="Path_4" data-name="Path 4" d="M199.744,247.179l-3.77,90.78L60.985,357.344,0,316.96V229.733L129.166,213.58Z" transform="translate(0 -167.142)" fill="#373e46"/>
  <path id="Path_5" data-name="Path 5" d="M61.655,314.844v93.69L.67,368.15V280.98Z" transform="translate(-0.499 -218.332)" opacity="0.1"/>
  <path id="Path_6" data-name="Path 6" d="M325.595,7.04,305.312,25.47,207.544,35.716,190.07,19.561Z" transform="translate(-141.59 -5.347)" opacity="0.1"/>
  <path id="Path_7" data-name="Path 7" d="M507.08,213.58,508.45,348.3l65.441-10.339,3.767-90.78Z" transform="translate(-377.743 -167.142)" opacity="0.1"/>
  <path id="Path_8" data-name="Path 8" d="M521.661,247.179l-26.381-2.263-63.37-29.585,19.173-1.751Z" transform="translate(-321.746 -163.778)" fill="#373e46"/>
  <path id="Path_9" data-name="Path 9" d="M194.1,12.6l17.474,16.153L328.747,16.477,330.461,0Z" transform="translate(-144.592)" fill="#373e46"/>
  <path id="Path_10" data-name="Path 10" d="M491.995,271.262a9.887,9.887,0,0,1-.255,2.278,10,10,0,0,1-1.785,3.759,10.958,10.958,0,0,1-7.652,4.233,11.585,11.585,0,0,1-5.272-.654,11.013,11.013,0,0,1-1.071-.459,10.558,10.558,0,0,1-5.282-5.794,8.872,8.872,0,0,1-.329-1.092c-.069-.284-.122-.572-.166-.863a9.983,9.983,0,0,1-.1-1.414,9.726,9.726,0,0,1,.477-3.021c.061-.2.133-.392.209-.587a10.872,10.872,0,0,1,8.95-6.651,11.24,11.24,0,0,1,10.381,4.431h0A9.874,9.874,0,0,1,491.995,271.262Z" transform="translate(-403.259 -210.222)" fill="#eeeff0"/>
  <ellipse id="Ellipse_1" data-name="Ellipse 1" cx="14.561" cy="19.06" rx="14.561" ry="19.06" transform="translate(73.32 30.824)" fill="#c676cb"/>
  <ellipse id="Ellipse_2" data-name="Ellipse 2" cx="14.561" cy="19.06" rx="14.561" ry="19.06" transform="translate(73.32 30.824)" opacity="0.1"/>
  <path id="Path_11" data-name="Path 11" d="M560.942,64.82c-11.917,0-22.741,6.546-27.713,16.758a27.467,27.467,0,0,0,4.591,30.74c.589.649,1.212,1.272,1.862,1.859a30.823,30.823,0,0,0,12.307,6.888c.765.224,1.556.421,2.349.582a32.463,32.463,0,0,0,12.332.168c.811-.142,1.617-.317,2.405-.527a30.9,30.9,0,0,0,12.8-6.816q1.058-.94,2.017-1.975a27.475,27.475,0,0,0,4.813-30.812c-4.945-10.272-15.8-16.868-27.766-16.866Zm0,5.493A1.942,1.942,0,1,1,563,68.375,2,2,0,0,1,560.942,70.313Z" transform="translate(-448.23 -59.813)" fill="#c676cb"/>
  <ellipse id="Ellipse_3" data-name="Ellipse 3" cx="10.279" cy="14.861" rx="10.279" ry="14.861" transform="translate(129.85 39.025)" fill="#975656"/>
  <ellipse id="Ellipse_4" data-name="Ellipse 4" cx="5.481" cy="7.925" rx="5.481" ry="7.925" transform="translate(134.647 45.863)" opacity="0.1"/>
  <ellipse id="Ellipse_5" data-name="Ellipse 5" cx="35.632" cy="37.151" rx="35.632" ry="37.151" transform="translate(77.087 64.926)" fill="#975656"/>
  <ellipse id="Ellipse_6" data-name="Ellipse 6" cx="35.632" cy="37.151" rx="35.632" ry="37.151" transform="translate(77.087 64.926)" opacity="0.1"/>
  <ellipse id="Ellipse_7" data-name="Ellipse 7" cx="10.279" cy="14.861" rx="10.279" ry="14.861" transform="translate(75.032 39.025)" fill="#975656"/>
  <ellipse id="Ellipse_8" data-name="Ellipse 8" cx="5.481" cy="7.925" rx="5.481" ry="7.925" transform="translate(79.829 45.863)" opacity="0.1"/>
  <path id="Path_12" data-name="Path 12" d="M345.089,103.942l.357-36.112-2.216,34.253Z" transform="translate(-255.685 -51.516)" opacity="0.1"/>
  <path id="Path_13" data-name="Path 13" d="M609.66,111.83l-.431,43.573c-.793-.161-1.579-.358-2.349-.582Z" transform="translate(-505.166 -95.516)" opacity="0.1"/>
  <path id="Path_14" data-name="Path 14" d="M667.271,111.83l-.426,43.224c-.788.209-1.594.385-2.405.527Z" transform="translate(-548.045 -95.516)" opacity="0.1"/>
  <path id="Path_15" data-name="Path 15" d="M517.978,102.264l.339-34.434-2.357,36.408Z" transform="translate(-384.358 -51.516)" opacity="0.1"/>
  <rect id="Rectangle_1" data-name="Rectangle 1" width="60.985" height="18.738" rx="9.369" transform="translate(82.227 32.189)" opacity="0.1"/>
  <path id="Path_16" data-name="Path 16" d="M596.286,210.868c-.017,13.908-11.451,25.43-26.168,26.366s-27.689-9.032-29.687-22.812,7.661-26.666,22.1-29.489,28.738,5.382,32.713,18.775A25.08,25.08,0,0,1,596.286,210.868Z" transform="translate(-455.471 -151.785)" fill="#975656"/>
  <path id="Path_17" data-name="Path 17" d="M598.071,205.745a4.426,4.426,0,0,1-.673.053H544.636a4.464,4.464,0,0,1-.676-.053,27.483,27.483,0,0,1,20.872-18.685H577.2A27.483,27.483,0,0,1,598.071,205.745Z" transform="translate(-458.295 -153.614)" opacity="0.1"/>
  <rect id="Rectangle_2" data-name="Rectangle 2" width="60.985" height="18.738" rx="9.369" transform="translate(82.227 32.818)" fill="#eeeff0"/>
  <path id="Path_18" data-name="Path 18" d="M348.8,171.456l.8-12.276-.12,12.276Z" transform="translate(-259.834 -121.927)" opacity="0.1"/>
  <path id="Path_19" data-name="Path 19" d="M407.236,171.456l.12-12.276-.8,12.276Z" transform="translate(-302.862 -121.927)" opacity="0.1"/>
  <path id="Path_20" data-name="Path 20" d="M465.116,159.18l-.122,12.276h-.673Z" transform="translate(-345.889 -121.927)" opacity="0.1"/>
  <path id="Path_21" data-name="Path 21" d="M522.08,171.456l.8-12.276-.12,12.276Z" transform="translate(-388.917 -121.927)" opacity="0.1"/>
  <ellipse id="Ellipse_9" data-name="Ellipse 9" cx="3.77" cy="3.555" rx="3.77" ry="3.555" transform="translate(98.329 52.067)" opacity="0.1"/>
  <ellipse id="Ellipse_10" data-name="Ellipse 10" cx="3.77" cy="3.555" rx="3.77" ry="3.555" transform="translate(98.329 51.751)" fill="#eeeff0"/>
  <ellipse id="Ellipse_11" data-name="Ellipse 11" cx="1.714" cy="1.616" rx="1.714" ry="1.616" transform="translate(100.385 53.667)" fill="#373e46"/>
  <ellipse id="Ellipse_12" data-name="Ellipse 12" cx="0.342" cy="0.322" rx="0.342" ry="0.322" transform="translate(102.099 54.319)" fill="#fff"/>
  <ellipse id="Ellipse_13" data-name="Ellipse 13" cx="3.77" cy="3.555" rx="3.77" ry="3.555" transform="translate(120.943 52.067)" opacity="0.1"/>
  <ellipse id="Ellipse_14" data-name="Ellipse 14" cx="3.77" cy="3.555" rx="3.77" ry="3.555" transform="translate(120.943 51.751)" fill="#eeeff0"/>
  <ellipse id="Ellipse_15" data-name="Ellipse 15" cx="1.714" cy="1.616" rx="1.714" ry="1.616" transform="translate(122.999 53.667)" fill="#373e46"/>
  <ellipse id="Ellipse_16" data-name="Ellipse 16" cx="0.342" cy="0.322" rx="0.342" ry="0.322" transform="translate(123.685 54.319)" fill="#fff"/>
  <ellipse id="Ellipse_17" data-name="Ellipse 17" cx="11.307" cy="10.662" rx="11.307" ry="10.662" transform="translate(102.099 55.404)" opacity="0.1"/>
  <ellipse id="Ellipse_18" data-name="Ellipse 18" cx="11.307" cy="10.662" rx="11.307" ry="10.662" transform="translate(102.099 54.778)" fill="#c676cb"/>
  <path id="Path_22" data-name="Path 22" d="M375.855,355.29,374.3,386.854l-.63,12.754L371.4,445.425,236.41,465.133V371.12Z" transform="translate(-176.111 -274.769)" fill="#373e46"/>
  <path id="Path_23" data-name="Path 23" d="M.67,270.464l26.014-3.254,54.843,27.808-19.872,9.368Z" transform="translate(-0.499 -204.947)" fill="#373e46"/>
  <path id="Path_24" data-name="Path 24" d="M.67,270.464l26.014-3.254,54.843,27.808-19.872,9.368Z" transform="translate(-0.499 -204.947)" opacity="0.05"/>
  <path id="Path_25" data-name="Path 25" d="M414.863,319.2l-3.454-1.744a.8.8,0,0,0-.883.115l-2.824,2.557a.8.8,0,0,1-.878.107.711.711,0,0,1-.4-.747l.691-3.634a.709.709,0,0,0-.388-.755l-3.454-1.744a.708.708,0,0,1-.372-.753.745.745,0,0,1,.627-.584l3.88-.5a.747.747,0,0,0,.643-.582l.689-3.634a.748.748,0,0,1,.645-.568.778.778,0,0,1,.783.383l1.706,3.324a.777.777,0,0,0,.786.394l3.877-.5a.775.775,0,0,1,.771.4.691.691,0,0,1-.141.82l-2.826,2.557a.692.692,0,0,0-.156.827l1.706,3.324a.692.692,0,0,1-.169.81A.8.8,0,0,1,414.863,319.2Z" transform="translate(-353.21 -245.249)" opacity="0.1"/>
  <path id="Path_26" data-name="Path 26" d="M416.785,320.767l-3.061-1.544a.7.7,0,0,0-.783.1l-2.5,2.268a.7.7,0,0,1-.781.1.622.622,0,0,1-.344-.669l.612-3.223a.622.622,0,0,0-.344-.671l-3.061-1.544a.622.622,0,0,1-.346-.67.655.655,0,0,1,.571-.516l3.441-.447a.655.655,0,0,0,.569-.515l.612-3.225a.653.653,0,0,1,.573-.532.679.679,0,0,1,.7.368L414.155,313a.678.678,0,0,0,.7.351l3.438-.445a.681.681,0,0,1,.7.35.607.607,0,0,1-.138.733l-2.525,2.263a.6.6,0,0,0-.14.722l1.515,2.949a.606.606,0,0,1-.124.742A.7.7,0,0,1,416.785,320.767Z" transform="translate(-355.644 -247.498)" fill="#eeeff0"/>
  <path id="Path_27" data-name="Path 27" d="M926.5,719.7l-2.132-1.077a.488.488,0,0,0-.546.07l-1.747,1.583a.488.488,0,0,1-.545.071.433.433,0,0,1-.238-.468l.426-2.246a.433.433,0,0,0-.24-.467l-2.135-1.078a.435.435,0,0,1-.238-.468.458.458,0,0,1,.4-.36l2.4-.31a.46.46,0,0,0,.4-.361l.426-2.246a.458.458,0,0,1,.4-.358.477.477,0,0,1,.485.243l1.053,2.056a.48.48,0,0,0,.487.241l2.4-.31a.474.474,0,0,1,.487.244.422.422,0,0,1-.1.511l-1.745,1.585a.427.427,0,0,0-.1.512l1.056,2.054a.424.424,0,0,1-.1.508A.491.491,0,0,1,926.5,719.7Z" transform="translate(-737.748 -556.257)" opacity="0.1"/>
  <path id="Path_28" data-name="Path 28" d="M927.761,720.744l-1.9-.962a.432.432,0,0,0-.482.063l-1.548,1.4a.435.435,0,0,1-.483.062.386.386,0,0,1-.214-.413l.377-1.994a.383.383,0,0,0-.212-.414l-1.893-.955a.384.384,0,0,1-.194-.406.4.4,0,0,1,.335-.315l2.125-.277a.4.4,0,0,0,.352-.317l.38-1.994a.406.406,0,0,1,.353-.318.422.422,0,0,1,.43.217l.934,1.823a.422.422,0,0,0,.431.217l2.127-.277a.422.422,0,0,1,.43.218.376.376,0,0,1-.086.453l-1.548,1.4a.374.374,0,0,0-.087.452l.936,1.823a.374.374,0,0,1-.089.449A.432.432,0,0,1,927.761,720.744Z" transform="translate(-739.323 -557.715)" fill="#3bbcec"/>
  <path id="Path_29" data-name="Path 29" d="M489.934,519.558l-2.132-1.078a.494.494,0,0,0-.546.072l-1.747,1.58a.489.489,0,0,1-.545.071.433.433,0,0,1-.238-.468l.426-2.246a.435.435,0,0,0-.24-.467l-2.135-1.078a.433.433,0,0,1-.24-.467.456.456,0,0,1,.4-.358l2.4-.313a.458.458,0,0,0,.4-.358l.426-2.249a.458.458,0,0,1,.4-.357.477.477,0,0,1,.484.243l1.056,2.054a.471.471,0,0,0,.485.24l2.4-.313a.476.476,0,0,1,.485.246.424.424,0,0,1-.1.511l-1.745,1.58a.419.419,0,0,0-.084.522l1.053,2.054a.425.425,0,0,1-.1.514A.492.492,0,0,1,489.934,519.558Z" transform="translate(-412.533 -402.289)" opacity="0.1"/>
  <path id="Path_30" data-name="Path 30" d="M491.187,520.589l-1.893-.962a.44.44,0,0,0-.485.063l-1.548,1.4a.435.435,0,0,1-.483.062.386.386,0,0,1-.214-.413l.378-1.992a.381.381,0,0,0-.212-.414l-1.893-.962a.382.382,0,0,1-.2-.407.4.4,0,0,1,.339-.314l2.125-.277a.4.4,0,0,0,.352-.32l.38-1.991a.406.406,0,0,1,.353-.318.422.422,0,0,1,.43.217l.934,1.821a.419.419,0,0,0,.431.216l2.14-.272a.419.419,0,0,1,.432.215.374.374,0,0,1-.088.453l-1.548,1.4a.376.376,0,0,0-.087.455l.936,1.821a.376.376,0,0,1-.087.462A.435.435,0,0,1,491.187,520.589Z" transform="translate(-414.099 -403.73)" fill="#3bbcec"/>
  <path id="Path_31" data-name="Path 31" d="M926.5,640.415l-2.132-1.077a.488.488,0,0,0-.546.07l-1.747,1.58a.488.488,0,0,1-.544.071.433.433,0,0,1-.24-.465l.426-2.246a.437.437,0,0,0-.24-.481l-2.135-1.075a.435.435,0,0,1-.238-.468.458.458,0,0,1,.4-.36l2.4-.313a.456.456,0,0,0,.4-.358l.426-2.246a.458.458,0,0,1,.4-.358.477.477,0,0,1,.485.243l1.053,2.054a.477.477,0,0,0,.487.241l2.4-.31a.474.474,0,0,1,.487.244.423.423,0,0,1-.1.511l-1.745,1.58a.426.426,0,0,0-.1.512l1.056,2.054a.424.424,0,0,1-.081.529A.491.491,0,0,1,926.5,640.415Z" transform="translate(-737.748 -494.835)" opacity="0.1"/>
  <path id="Path_32" data-name="Path 32" d="M927.761,641.471l-1.9-.962a.429.429,0,0,0-.482.063l-1.548,1.4a.435.435,0,0,1-.483.062.386.386,0,0,1-.214-.413l.377-1.994a.383.383,0,0,0-.212-.414l-1.893-.962a.384.384,0,0,1-.194-.406.4.4,0,0,1,.335-.315l2.125-.277a.4.4,0,0,0,.352-.317l.38-1.994a.406.406,0,0,1,.353-.318.422.422,0,0,1,.43.217l.934,1.821a.424.424,0,0,0,.431.219l2.127-.276a.422.422,0,0,1,.43.218.376.376,0,0,1-.086.453l-1.548,1.4a.372.372,0,0,0-.087.452l.936,1.821a.376.376,0,0,1-.083.455.435.435,0,0,1-.485.064Z" transform="translate(-739.323 -496.301)" fill="#3bbcec"/>
  <ellipse id="Ellipse_19" data-name="Ellipse 19" cx="7.024" cy="10.823" rx="7.024" ry="10.823" transform="translate(87.708 88.046)" fill="#975656"/>
  <ellipse id="Ellipse_20" data-name="Ellipse 20" cx="7.024" cy="10.823" rx="7.024" ry="10.823" transform="translate(126.424 84.279)" fill="#975656"/>
  <path id="Path_33" data-name="Path 33" d="M198.685,448.069l-.63,12.754L60.8,474.131.67,448.305V435.89L60.8,460.638Z" transform="translate(-0.499 -334.345)" fill="#c676cb"/>
  <path id="Path_34" data-name="Path 34" d="M60.8,460.638v13.493L.67,448.305V435.89Z" transform="translate(-0.499 -334.345)" opacity="0.1"/>
</svg>
