<svg xmlns="http://www.w3.org/2000/svg" xmlns:xlink="http://www.w3.org/1999/xlink" width="145" height="30" viewBox="0 0 145 30">
  <defs>
    <filter id="U_M_T_T_E_R" x="0" y="0" width="145" height="30" filterUnits="userSpaceOnUse">
      <feOffset dy="1.5" input="SourceAlpha"/>
      <feGaussianBlur stdDeviation="0.5" result="blur"/>
      <feFlood flood-color="#122a79" flood-opacity="0.671"/>
      <feComposite operator="in" in2="blur"/>
      <feComposite in="SourceGraphic"/>
    </filter>
  </defs>
  <g id="logo" transform="translate(-147.5 -97)">
    <g transform="matrix(1, 0, 0, 1, 147.5, 97)" filter="url(#U_M_T_T_E_R)">
      <text id="U_M_T_T_E_R-2" data-name="U   M     T T E R" transform="translate(1.5 22)" fill="#fff" font-size="20" font-family="SegoeUI-Bold, Segoe UI" font-weight="700"><tspan x="0" y="0" xml:space="preserve">U   M     T T E R</tspan></text>
    </g>
    <path id="hinduist-yoga-position" d="M38.287,13.113c.194-.48-.149-.992-.767-1.143-2.758-.674-3.929-4.513-4.2-5.929a1.256,1.256,0,0,0-.173-.395c-.506-.749-2.423-1.1-2.639-1.119-.388-.036-.437-.267-.453-.345a2.429,2.429,0,0,0,1.134-2.048C31.184.956,31.024,0,28.959,0H28.8c-2.066,0-2.226.956-2.226,2.134a2.429,2.429,0,0,0,1.134,2.048c-.016.078-.081.313-.453.345-.232.02-2.433.424-2.729,1.3,0,0-.036.125-.058.222a11.872,11.872,0,0,1-.913,2.76,5.442,5.442,0,0,1-3.287,3.165c-.618.151-.961.663-.767,1.143a1.178,1.178,0,0,0,1.106.638c-.988.442-1.133,1.058-1.133,1.377a1.477,1.477,0,0,0,.47.92A3.211,3.211,0,0,0,22.3,16.8c.2,0,.408-.009.623-.027.879-.073,1.765-.184,2.622-.29q.467-.058.933-.114c.414-.05,1.162-.082,2.22-.1h.363c1.059.015,1.806.048,2.22.1q.467.056.933.114c.857.107,1.743.217,2.622.29.215.018.425.027.623.027a3.211,3.211,0,0,0,2.358-.749,1.477,1.477,0,0,0,.47-.92c0-.319-.145-.935-1.133-1.377h.016A1.182,1.182,0,0,0,38.287,13.113ZM24.586,13a7.353,7.353,0,0,1-1.24.215c-.166.018-.369.041-.639.073s-.506.051-.729.086a7.486,7.486,0,0,0,3.677-3.737,8.3,8.3,0,0,1,.083,1.18A2.353,2.353,0,0,1,24.586,13Zm10.463.288c-.27-.032-.473-.057-.639-.073-1.6-.153-2.392-.991-2.392-2.4a8.288,8.288,0,0,1,.089-1.226,7.5,7.5,0,0,0,3.716,3.79C35.588,13.341,35.331,13.309,35.049,13.286Z" transform="translate(184.025 103.101)" fill="#f4f4f5"/>
  </g>
</svg>
